<svg width="97" height="97" viewBox="0 0 97 97" fill="none" xmlns="http://www.w3.org/2000/svg">
<path d="M1 26.2181L46.5678 1.52121C47.853 0.82463 49.3994 0.826366 50.6831 1.52583L96 26.2181M30.2308 62.9684L66.7692 63.1154M30.2308 81.3846H66.7692M15.6154 33.8846V92.3462C15.6154 94.7624 16.8735 96 19.2692 96H77.7308C80.1265 96 81.3846 94.7624 81.3846 92.3462V33.8594C81.3846 31.4432 80.1265 30.2308 77.7308 30.2308H19.2692C16.8735 30.2308 15.6154 31.4683 15.6154 33.8846ZM30.2308 33.8846V42.9115C30.2308 45.3278 31.4889 46.5654 33.8846 46.5654H63.1154C65.5111 46.5654 66.7692 45.3278 66.7692 42.9115V33.8846C66.7692 31.4683 65.5111 30.2308 63.1154 30.2308H33.8846C31.4889 30.2308 30.2308 31.4683 30.2308 33.8846Z" stroke="black" stroke-width="1.5" stroke-linecap="round"/>
</svg>
